<svg xmlns="http://www.w3.org/2000/svg" viewBox="0 0 64 64">
  <rect width="64" height="64" rx="10" fill="#14110e"/>
  <g fill="#ef5a2b">
    <g>
      <path d="M32 5 L34 32 L30 32 Z"/>
      <path d="M32 5 L34 32 L30 32 Z" transform="rotate(45 32 32)"/>
      <path d="M32 5 L34 32 L30 32 Z" transform="rotate(90 32 32)"/>
      <path d="M32 5 L34 32 L30 32 Z" transform="rotate(135 32 32)"/>
      <path d="M32 5 L34 32 L30 32 Z" transform="rotate(180 32 32)"/>
      <path d="M32 5 L34 32 L30 32 Z" transform="rotate(225 32 32)"/>
      <path d="M32 5 L34 32 L30 32 Z" transform="rotate(270 32 32)"/>
      <path d="M32 5 L34 32 L30 32 Z" transform="rotate(315 32 32)"/>
    </g>
    <circle cx="32" cy="32" r="4" fill="#14110e"/>
    <circle cx="32" cy="32" r="2.5"/>
  </g>
</svg>
